<?xml version="1.0" encoding="UTF-8" standalone="no"?>
<!-- Created with Inkscape (http://www.inkscape.org/) -->

<svg
   version="1.1"
   id="svg279"
   xml:space="preserve"
   width="682.66669"
   height="682.66669"
   viewBox="0 0 682.66669 682.66669"
   xmlns="http://www.w3.org/2000/svg"
   xmlns:svg="http://www.w3.org/2000/svg"><defs
     id="defs283"><clipPath
       clipPathUnits="userSpaceOnUse"
       id="clipPath293"><path
         d="M 0,512 H 512 V 0 H 0 Z"
         id="path291" /></clipPath></defs><g
     id="g285"
     transform="matrix(1.3333333,0,0,-1.3333333,0,682.66667)"><g
       id="g287"><g
         id="g289"
         clip-path="url(#clipPath293)"><g
           id="g295"
           transform="translate(7.5,370.8027)"><path
             d="m 0,0 233.954,129.7 c 9.049,5.016 20.043,5.016 29.092,0 L 497,0 Z"
             style="fill:#aee69c;fill-opacity:1;fill-rule:nonzero;stroke:none"
             id="path297" /></g><g
           id="g299"
           transform="translate(270.5459,500.5024)"><path
             d="m 0,0 c -9.049,5.016 -20.043,5.016 -29.092,0 l -4.454,-2.469 229.5,-127.231 h 38 z"
             style="fill:#89daa4;fill-opacity:1;fill-rule:nonzero;stroke:none"
             id="path301" /></g><g
           id="g303"
           transform="translate(334.4385,189.1514)"><path
             d="m 0,0 c 0,-43.32 -35.118,-78.438 -78.438,-78.438 -43.321,0 -78.438,35.118 -78.438,78.438 0,43.32 35.117,78.438 78.438,78.438 C -35.118,78.438 0,43.32 0,0"
             style="fill:#ffe179;fill-opacity:1;fill-rule:nonzero;stroke:none"
             id="path305" /></g><g
           id="g307"
           transform="translate(256,267.5894)"><path
             d="m 0,0 c -5.132,0 -10.143,-0.508 -15,-1.449 36.143,-7.002 63.438,-38.801 63.438,-76.989 0,-38.188 -27.295,-69.987 -63.438,-76.989 4.857,-0.941 9.868,-1.449 15,-1.449 43.32,0 78.438,35.118 78.438,78.438 C 78.438,-35.118 43.32,0 0,0"
             style="fill:#fbd268;fill-opacity:1;fill-rule:nonzero;stroke:none"
             id="path309" /></g><g
           id="g311"
           transform="translate(283,432.0049)"><path
             d="m 0,0 c 0,-14.912 -12.088,-27 -27,-27 -14.912,0 -27,12.088 -27,27 0,14.912 12.088,27 27,27 C -12.088,27 0,14.912 0,0"
             style="fill:#3d6d93;fill-opacity:1;fill-rule:nonzero;stroke:none"
             id="path313" /></g><g
           id="g315"
           transform="translate(256,459.0049)"><path
             d="m 0,0 c -5.551,0 -10.709,-1.677 -15,-4.55 7.235,-4.844 12,-13.09 12,-22.45 0,-9.361 -4.765,-17.606 -12,-22.45 4.291,-2.873 9.449,-4.55 15,-4.55 14.912,0 27,12.088 27,27 C 27,-12.088 14.912,0 0,0"
             style="fill:#335e80;fill-opacity:1;fill-rule:nonzero;stroke:none"
             id="path317" /></g><g
           id="g319"
           transform="translate(474.5,52.5)"><path
             d="m 0,0 h -120.251 l 30,42.227 H -30 Z"
             style="fill:#aee69c;fill-opacity:1;fill-rule:nonzero;stroke:none"
             id="path321" /></g><g
           id="g323"
           transform="translate(444.5,94.7271)"><path
             d="M 0,0 H -30 L 0,-42.227 h 30 z"
             style="fill:#89daa4;fill-opacity:1;fill-rule:nonzero;stroke:none"
             id="path325" /></g><g
           id="g327"
           transform="translate(474.5,325.8027)"><path
             d="m 0,0 h -120.251 l 30,-42.228 H -30 Z"
             style="fill:#aee69c;fill-opacity:1;fill-rule:nonzero;stroke:none"
             id="path329" /></g><g
           id="g331"
           transform="translate(444.5,325.8027)"><path
             d="M 0,0 -30,-42.228 H 0 L 30,0 Z"
             style="fill:#89daa4;fill-opacity:1;fill-rule:nonzero;stroke:none"
             id="path333" /></g><path
           d="M 444.5,94.727 H 384.249 V 283.575 H 444.5 Z"
           style="fill:#eaf6ff;fill-opacity:1;fill-rule:nonzero;stroke:none"
           id="path335" /><path
           d="m 414.5,94.727 h 30 v 188.848 h -30 z"
           style="fill:#d8ecfe;fill-opacity:1;fill-rule:nonzero;stroke:none"
           id="path337" /><g
           id="g339"
           transform="translate(157.7515,52.5)"><path
             d="m 0,0 h -120.251 l 30,42.227 H -30 Z"
             style="fill:#aee69c;fill-opacity:1;fill-rule:nonzero;stroke:none"
             id="path341" /></g><g
           id="g343"
           transform="translate(157.7515,325.8027)"><path
             d="m 0,0 h -120.251 l 30,-42.228 H -30 Z"
             style="fill:#aee69c;fill-opacity:1;fill-rule:nonzero;stroke:none"
             id="path345" /></g><path
           d="M 127.751,94.727 H 67.5 v 188.848 h 60.251 z"
           style="fill:#eaf6ff;fill-opacity:1;fill-rule:nonzero;stroke:none"
           id="path347" /><g
           id="g349"
           transform="translate(127.7515,94.7271)"><path
             d="M 0,0 H -30 L 0,-42.227 h 30 z"
             style="fill:#89daa4;fill-opacity:1;fill-rule:nonzero;stroke:none"
             id="path351" /></g><g
           id="g353"
           transform="translate(127.7515,325.8027)"><path
             d="M 0,0 -30,-42.228 H 0 L 30,0 Z"
             style="fill:#89daa4;fill-opacity:1;fill-rule:nonzero;stroke:none"
             id="path355" /></g><path
           d="m 97.751,94.727 h 30 v 188.848 h -30 z"
           style="fill:#d8ecfe;fill-opacity:1;fill-rule:nonzero;stroke:none"
           id="path357" /><g
           id="g359"
           transform="translate(7.5,370.8027)"><path
             d="M 0,0 H 497 V -22.5 C 497,-34.927 486.927,-45 474.5,-45 H 22.5 C 10.074,-45 0,-34.927 0,-22.5 Z"
             style="fill:#3d6d93;fill-opacity:1;fill-rule:nonzero;stroke:none"
             id="path361" /></g><g
           id="g363"
           transform="translate(474.5,370.8027)"><path
             d="M 0,0 V -22.5 C 0,-34.927 -10.073,-45 -22.5,-45 h 30 C 19.927,-45 30,-34.927 30,-22.5 V 0 Z"
             style="fill:#335e80;fill-opacity:1;fill-rule:nonzero;stroke:none"
             id="path365" /></g><g
           id="g367"
           transform="translate(17.5,52.5)"><path
             d="m 0,0 h 477 c 5.522,0 10,-4.477 10,-10 v -25 c 0,-5.523 -4.478,-10 -10,-10 H 0 c -5.523,0 -10,4.477 -10,10 v 25 c 0,5.523 4.477,10 10,10"
             style="fill:#3d6d93;fill-opacity:1;fill-rule:nonzero;stroke:none"
             id="path369" /></g><g
           id="g371"
           transform="translate(494.5,52.5)"><path
             d="m 0,0 h -30 c 5.522,0 10,-4.477 10,-10 v -25 c 0,-5.523 -4.478,-10 -10,-10 H 0 c 5.522,0 10,4.477 10,10 v 25 C 10,-4.477 5.522,0 0,0"
             style="fill:#335e80;fill-opacity:1;fill-rule:nonzero;stroke:none"
             id="path373" /></g><g
           id="g375"
           transform="translate(147.0942,448.1909)"><path
             d="m 0,0 94.36,52.312 c 9.049,5.016 20.043,5.016 29.092,0 l 233.954,-129.7 h -497 l 108.636,60.226"
             style="fill:none;stroke:#000000;stroke-width:15;stroke-linecap:round;stroke-linejoin:round;stroke-miterlimit:10;stroke-dasharray:none;stroke-opacity:1"
             id="path377" /></g><g
           id="g379"
           transform="translate(7.5,370.8027)"><path
             d="M 0,0 H 497 V -22.5 C 497,-34.927 486.927,-45 474.5,-45 H 22.5 C 10.074,-45 0,-34.927 0,-22.5 Z"
             style="fill:none;stroke:#000000;stroke-width:15;stroke-linecap:round;stroke-linejoin:round;stroke-miterlimit:10;stroke-dasharray:none;stroke-opacity:1"
             id="path381" /></g><g
           id="g383"
           transform="translate(17.5,52.5)"><path
             d="m 0,0 h 477 c 5.522,0 10,-4.477 10,-10 v -25 c 0,-5.523 -4.478,-10 -10,-10 H 0 c -5.523,0 -10,4.477 -10,10 v 25 c 0,5.523 4.477,10 10,10 z"
             style="fill:none;stroke:#000000;stroke-width:15;stroke-linecap:round;stroke-linejoin:round;stroke-miterlimit:10;stroke-dasharray:none;stroke-opacity:1"
             id="path385" /></g><g
           id="g387"
           transform="translate(334.4385,189.1514)"><path
             d="m 0,0 c 0,-43.32 -35.118,-78.438 -78.438,-78.438 -43.321,0 -78.438,35.118 -78.438,78.438 0,43.32 35.117,78.438 78.438,78.438 C -35.118,78.438 0,43.32 0,0 Z"
             style="fill:none;stroke:#000000;stroke-width:15;stroke-linecap:round;stroke-linejoin:round;stroke-miterlimit:10;stroke-dasharray:none;stroke-opacity:1"
             id="path389" /></g><g
           id="g391"
           transform="translate(256,241.8247)"><path
             d="M 0,0 V -105.347"
             style="fill:none;stroke:#000000;stroke-width:15;stroke-linecap:round;stroke-linejoin:round;stroke-miterlimit:10;stroke-dasharray:none;stroke-opacity:1"
             id="path393" /></g><g
           id="g395"
           transform="translate(233.208,163.5103)"><path
             d="m 0,0 c 0,-8.497 6.123,-15.385 13.675,-15.385 h 18.234 c 7.553,0 13.675,6.888 13.675,15.385 v 10.257 c 0,8.497 -6.123,15.385 -13.676,15.385 L 13.675,25.641 C 6.123,25.641 0,32.529 0,41.026 v 10.256 c 0,8.497 6.123,15.385 13.675,15.385 h 18.234 c 7.553,0 13.675,-6.888 13.675,-15.385"
             style="fill:none;stroke:#000000;stroke-width:15;stroke-linecap:round;stroke-linejoin:round;stroke-miterlimit:10;stroke-dasharray:none;stroke-opacity:1"
             id="path397" /></g><g
           id="g399"
           transform="translate(283,432.0049)"><path
             d="m 0,0 c 0,-14.912 -12.088,-27 -27,-27 -14.912,0 -27,12.088 -27,27 0,14.912 12.088,27 27,27 C -12.088,27 0,14.912 0,0 Z"
             style="fill:none;stroke:#000000;stroke-width:15;stroke-linecap:round;stroke-linejoin:round;stroke-miterlimit:10;stroke-dasharray:none;stroke-opacity:1"
             id="path401" /></g><g
           id="g403"
           transform="translate(474.5,52.5)"><path
             d="m 0,0 h -120.251 l 30,42.227 H -30 Z"
             style="fill:none;stroke:#000000;stroke-width:15;stroke-linecap:round;stroke-linejoin:round;stroke-miterlimit:10;stroke-dasharray:none;stroke-opacity:1"
             id="path405" /></g><g
           id="g407"
           transform="translate(474.5,325.8027)"><path
             d="m 0,0 h -120.251 l 30,-42.228 H -30 Z"
             style="fill:none;stroke:#000000;stroke-width:15;stroke-linecap:round;stroke-linejoin:round;stroke-miterlimit:10;stroke-dasharray:none;stroke-opacity:1"
             id="path409" /></g><g
           id="g411"
           transform="translate(384.249,190.2109)"><path
             d="M 0,0 V 93.364 H 60.251 V -95.484 L 0,-95.484 V -35"
             style="fill:none;stroke:#000000;stroke-width:15;stroke-linecap:round;stroke-linejoin:round;stroke-miterlimit:10;stroke-dasharray:none;stroke-opacity:1"
             id="path413" /></g><g
           id="g415"
           transform="translate(157.7515,52.5)"><path
             d="m 0,0 h -120.251 l 30,42.227 H -30 Z"
             style="fill:none;stroke:#000000;stroke-width:15;stroke-linecap:round;stroke-linejoin:round;stroke-miterlimit:10;stroke-dasharray:none;stroke-opacity:1"
             id="path417" /></g><g
           id="g419"
           transform="translate(157.7515,325.8027)"><path
             d="m 0,0 h -120.251 l 30,-42.228 H -30 Z"
             style="fill:none;stroke:#000000;stroke-width:15;stroke-linecap:round;stroke-linejoin:round;stroke-miterlimit:10;stroke-dasharray:none;stroke-opacity:1"
             id="path421" /></g><path
           d="M 127.751,94.727 H 67.5 v 188.848 h 60.251 z"
           style="fill:none;stroke:#000000;stroke-width:15;stroke-linecap:round;stroke-linejoin:round;stroke-miterlimit:10;stroke-dasharray:none;stroke-opacity:1"
           id="path423" /></g></g></g></svg>
